# xmcd
#
# Track frame offsets: 
#        150
#        13123
#        24117
#        36913
#        48722
#        59646
#        73856
#        82926
#        93095
#        111280
#        120578
#        134949
#        147961
#        157419
#        167560
#        178339
#        190747
#        204577
#        214602
#        226070
#
# Disc length: 3129 seconds
#
# Revision: 0
# Processed by: cddbd v1.5.2PL0 Copyright (c) Steve Scherf et al.
# Submitted via: ExactAudioCopyFreeDBPlugin 1.0
#
DISCID=250c3714
DTITLE=Various Artist - The Best Northern Soul Album
DYEAR=1900
DGENRE=Northern Soul
TTITLE0=Freda Payne - Band Of Gold
TTITLE1=Billy Butler - Right Track
TTITLE2=Herb Ward - Honest To Goodness
TTITLE3=Paul Anka - I Can't Help Lovin' You
TTITLE4=Lou Courtney - Trying To Find My Woman
TTITLE5=Little Richard - A Little Bit Of Something (Beats A Whole Lot 
TTITLE5=Of Nothing)
TTITLE6=Gia Mateo - If You Can't Say Anything Nice
TTITLE7=Dana Valery - You Don't Know Where Your Interest Lies
TTITLE8=James Walsh Gypsy Band - Cuz It's You, Girl
TTITLE9=Michal And Raymond - Man Without A Woman
TTITLE10=Philly Devotions - I Just Can't Say Goodbye
TTITLE11=Robert Knight - Branded
TTITLE12=Shane Martin - I Need You
TTITLE13=Susan Barrett - What's It Gonna Be
TTITLE14=The Charmaines - Eternally
TTITLE15=The Lorelei - S.T.O.P.
TTITLE16=Johnny Johnson and The Bandwagon - (Blame It) On The Pony Expre
TTITLE16=ss
TTITLE17=The Vibrations - Gonna Get Along Without You Now
TTITLE18=Flower Shoppe - You've Come A Long Way Baby
TTITLE19=Gloria Edwards - Lonely Girl
EXTD=
EXTT0=
EXTT1=
EXTT2=
EXTT3=
EXTT4=
EXTT5=
EXTT6=
EXTT7=
EXTT8=
EXTT9=
EXTT10=
EXTT11=
EXTT12=
EXTT13=
EXTT14=
EXTT15=
EXTT16=
EXTT17=
EXTT18=
EXTT19=
PLAYORDER=
